<mxfile host="65bd71144e">
    <diagram id="UxzNSFiWjtJhnRdj75UU" name="Page-1">
        <mxGraphModel dx="2911" dy="849" grid="0" gridSize="12" guides="1" tooltips="1" connect="1" arrows="1" fold="1" page="0" pageScale="1" pageWidth="850" pageHeight="1100" math="0" shadow="0">
            <root>
                <mxCell id="0"/>
                <mxCell id="1" parent="0"/>
                <mxCell id="194" value="Chương trình điều khiển máy bay" style="swimlane;horizontal=0;whiteSpace=wrap;html=1;fontFamily=Times New Roman;movable=0;resizable=0;rotatable=0;deletable=0;editable=0;connectable=0;" vertex="1" parent="1">
                    <mxGeometry x="-828" y="24" width="1604" height="660" as="geometry">
                        <mxRectangle x="-828" y="24" width="36" height="144" as="alternateBounds"/>
                    </mxGeometry>
                </mxCell>
                <mxCell id="122" value="Chương trình chính&lt;br&gt;" style="swimlane;whiteSpace=wrap;html=1;fontFamily=Times New Roman;startSize=23;movable=0;resizable=0;rotatable=0;deletable=0;editable=0;connectable=0;" vertex="1" parent="194">
                    <mxGeometry x="56" y="24" width="336" height="612" as="geometry">
                        <mxRectangle x="-204" y="258" width="144" height="24" as="alternateBounds"/>
                    </mxGeometry>
                </mxCell>
                <mxCell id="105" style="edgeStyle=none;html=1;fontFamily=Times New Roman;movable=0;resizable=0;rotatable=0;deletable=0;editable=0;connectable=0;" edge="1" parent="122" source="106">
                    <mxGeometry relative="1" as="geometry">
                        <mxPoint x="172" y="69" as="targetPoint"/>
                    </mxGeometry>
                </mxCell>
                <mxCell id="123" style="edgeStyle=none;html=1;entryX=0.5;entryY=0;entryDx=0;entryDy=0;fontFamily=Times New Roman;movable=0;resizable=0;rotatable=0;deletable=0;editable=0;connectable=0;" edge="1" parent="122" source="106" target="108">
                    <mxGeometry relative="1" as="geometry"/>
                </mxCell>
                <mxCell id="106" value="&lt;font face=&quot;Times New Roman&quot;&gt;Bắt đầu&lt;/font&gt;" style="ellipse;whiteSpace=wrap;html=1;movable=0;resizable=0;rotatable=0;deletable=0;editable=0;connectable=0;" vertex="1" parent="122">
                    <mxGeometry x="132" y="48" width="72" height="36" as="geometry"/>
                </mxCell>
                <mxCell id="108" value="Cài đặt hệ thống, cấu hình ngoại vi, ngắt" style="rounded=0;whiteSpace=wrap;html=1;fontFamily=Times New Roman;movable=0;resizable=0;rotatable=0;deletable=0;editable=0;connectable=0;" vertex="1" parent="122">
                    <mxGeometry x="108" y="108" width="120" height="60" as="geometry"/>
                </mxCell>
                <mxCell id="111" value="Điều kiện vòng lặp" style="rhombus;whiteSpace=wrap;html=1;fontFamily=Times New Roman;movable=0;resizable=0;rotatable=0;deletable=0;editable=0;connectable=0;" vertex="1" parent="122">
                    <mxGeometry x="114" y="192" width="108" height="96" as="geometry"/>
                </mxCell>
                <mxCell id="107" style="edgeStyle=none;html=1;fontFamily=Times New Roman;movable=0;resizable=0;rotatable=0;deletable=0;editable=0;connectable=0;" edge="1" parent="122" source="108" target="111">
                    <mxGeometry relative="1" as="geometry"/>
                </mxCell>
                <mxCell id="113" value="Điều kiện thời gian đủ 20ms" style="rhombus;whiteSpace=wrap;html=1;fontFamily=Times New Roman;movable=0;resizable=0;rotatable=0;deletable=0;editable=0;connectable=0;" vertex="1" parent="122">
                    <mxGeometry x="102" y="312" width="132" height="132" as="geometry"/>
                </mxCell>
                <mxCell id="109" style="edgeStyle=none;html=1;entryX=0.5;entryY=0;entryDx=0;entryDy=0;fontFamily=Times New Roman;movable=0;resizable=0;rotatable=0;deletable=0;editable=0;connectable=0;" edge="1" parent="122" source="111" target="113">
                    <mxGeometry relative="1" as="geometry"/>
                </mxCell>
                <mxCell id="114" value="Gửi giao tiếp RF&lt;br&gt;Nhận giao tiếp RF&lt;br&gt;Nháy đèn báo" style="whiteSpace=wrap;html=1;fontFamily=Times New Roman;movable=0;resizable=0;rotatable=0;deletable=0;editable=0;connectable=0;" vertex="1" parent="122">
                    <mxGeometry x="108" y="468" width="120" height="60" as="geometry"/>
                </mxCell>
                <mxCell id="112" value="" style="edgeStyle=none;html=1;fontFamily=Times New Roman;movable=0;resizable=0;rotatable=0;deletable=0;editable=0;connectable=0;" edge="1" parent="122" source="113" target="114">
                    <mxGeometry relative="1" as="geometry"/>
                </mxCell>
                <mxCell id="115" value="" style="endArrow=classic;html=1;fontFamily=Times New Roman;exitX=0.5;exitY=1;exitDx=0;exitDy=0;movable=0;resizable=0;rotatable=0;deletable=0;editable=0;connectable=0;" edge="1" parent="122" source="114">
                    <mxGeometry width="50" height="50" relative="1" as="geometry">
                        <mxPoint x="174" y="531" as="sourcePoint"/>
                        <mxPoint x="168" y="180" as="targetPoint"/>
                        <Array as="points">
                            <mxPoint x="168" y="552"/>
                            <mxPoint x="72" y="552"/>
                            <mxPoint x="72" y="180"/>
                        </Array>
                    </mxGeometry>
                </mxCell>
                <mxCell id="116" value="Kết thúc" style="ellipse;whiteSpace=wrap;html=1;fontFamily=Times New Roman;movable=0;resizable=0;rotatable=0;deletable=0;editable=0;connectable=0;" vertex="1" parent="122">
                    <mxGeometry x="252" y="222" width="60" height="36" as="geometry"/>
                </mxCell>
                <mxCell id="110" value="" style="edgeStyle=none;html=1;fontFamily=Times New Roman;movable=0;resizable=0;rotatable=0;deletable=0;editable=0;connectable=0;" edge="1" parent="122" source="111" target="116">
                    <mxGeometry relative="1" as="geometry"/>
                </mxCell>
                <mxCell id="117" value="Đ" style="text;html=1;align=center;verticalAlign=middle;resizable=0;points=[];autosize=1;strokeColor=none;fillColor=none;fontFamily=Times New Roman;movable=0;rotatable=0;deletable=0;editable=0;connectable=0;" vertex="1" parent="122">
                    <mxGeometry x="168" y="286" width="36" height="24" as="geometry"/>
                </mxCell>
                <mxCell id="118" value="S" style="text;html=1;align=center;verticalAlign=middle;resizable=0;points=[];autosize=1;strokeColor=none;fillColor=none;fontFamily=Times New Roman;movable=0;rotatable=0;deletable=0;editable=0;connectable=0;" vertex="1" parent="122">
                    <mxGeometry x="216" y="222" width="36" height="24" as="geometry"/>
                </mxCell>
                <mxCell id="119" value="Đ" style="text;html=1;align=center;verticalAlign=middle;resizable=0;points=[];autosize=1;strokeColor=none;fillColor=none;fontFamily=Times New Roman;movable=0;rotatable=0;deletable=0;editable=0;connectable=0;" vertex="1" parent="122">
                    <mxGeometry x="168" y="444" width="36" height="24" as="geometry"/>
                </mxCell>
                <mxCell id="120" value="" style="endArrow=classic;html=1;fontFamily=Times New Roman;exitX=1;exitY=0.5;exitDx=0;exitDy=0;movable=0;resizable=0;rotatable=0;deletable=0;editable=0;connectable=0;" edge="1" parent="122" source="113">
                    <mxGeometry width="50" height="50" relative="1" as="geometry">
                        <mxPoint x="268" y="449" as="sourcePoint"/>
                        <mxPoint x="156" y="552" as="targetPoint"/>
                        <Array as="points">
                            <mxPoint x="264" y="378"/>
                            <mxPoint x="264" y="552"/>
                        </Array>
                    </mxGeometry>
                </mxCell>
                <mxCell id="121" value="S" style="text;html=1;align=center;verticalAlign=middle;resizable=0;points=[];autosize=1;strokeColor=none;fillColor=none;fontFamily=Times New Roman;movable=0;rotatable=0;deletable=0;editable=0;connectable=0;" vertex="1" parent="122">
                    <mxGeometry x="228" y="360" width="36" height="24" as="geometry"/>
                </mxCell>
                <mxCell id="154" value="Chương trình ngắt Timer 2" style="swimlane;whiteSpace=wrap;html=1;fontFamily=Times New Roman;movable=0;resizable=0;rotatable=0;deletable=0;editable=0;connectable=0;" vertex="1" parent="194">
                    <mxGeometry x="416" y="24" width="264" height="612" as="geometry"/>
                </mxCell>
                <mxCell id="141" value="&lt;font face=&quot;Times New Roman&quot;&gt;Bắt đầu&lt;/font&gt;" style="ellipse;whiteSpace=wrap;html=1;movable=0;resizable=0;rotatable=0;deletable=0;editable=0;connectable=0;" vertex="1" parent="154">
                    <mxGeometry x="96" y="48" width="72" height="36" as="geometry"/>
                </mxCell>
                <mxCell id="143" value="Kiểm tra timer ngắt" style="rhombus;whiteSpace=wrap;html=1;fontFamily=Times New Roman;movable=0;resizable=0;rotatable=0;deletable=0;editable=0;connectable=0;" vertex="1" parent="154">
                    <mxGeometry x="78" y="108" width="108" height="96" as="geometry"/>
                </mxCell>
                <mxCell id="144" style="edgeStyle=none;html=1;entryX=0.5;entryY=0;entryDx=0;entryDy=0;fontFamily=Times New Roman;movable=0;resizable=0;rotatable=0;deletable=0;editable=0;connectable=0;" edge="1" parent="154" source="141" target="143">
                    <mxGeometry relative="1" as="geometry"/>
                </mxCell>
                <mxCell id="145" value="Đọc cảm biến" style="shape=process;whiteSpace=wrap;html=1;backgroundOutline=1;fontFamily=Times New Roman;movable=0;resizable=0;rotatable=0;deletable=0;editable=0;connectable=0;" vertex="1" parent="154">
                    <mxGeometry x="72" y="228" width="120" height="60" as="geometry"/>
                </mxCell>
                <mxCell id="146" style="edgeStyle=none;html=1;entryX=0.5;entryY=0;entryDx=0;entryDy=0;fontFamily=Times New Roman;movable=0;resizable=0;rotatable=0;deletable=0;editable=0;connectable=0;" edge="1" parent="154" source="143" target="145">
                    <mxGeometry relative="1" as="geometry"/>
                </mxCell>
                <mxCell id="147" value="Bộ điều khiển" style="shape=process;whiteSpace=wrap;html=1;backgroundOutline=1;fontFamily=Times New Roman;movable=0;resizable=0;rotatable=0;deletable=0;editable=0;connectable=0;" vertex="1" parent="154">
                    <mxGeometry x="72" y="312" width="120" height="60" as="geometry"/>
                </mxCell>
                <mxCell id="149" style="edgeStyle=none;html=1;fontFamily=Times New Roman;movable=0;resizable=0;rotatable=0;deletable=0;editable=0;connectable=0;" edge="1" parent="154" source="145" target="147">
                    <mxGeometry relative="1" as="geometry"/>
                </mxCell>
                <mxCell id="148" value="Xuất tín hiệu điều khiển" style="shape=process;whiteSpace=wrap;html=1;backgroundOutline=1;fontFamily=Times New Roman;movable=0;resizable=0;rotatable=0;deletable=0;editable=0;connectable=0;" vertex="1" parent="154">
                    <mxGeometry x="72" y="396" width="120" height="60" as="geometry"/>
                </mxCell>
                <mxCell id="150" style="edgeStyle=none;html=1;entryX=0.5;entryY=0;entryDx=0;entryDy=0;fontFamily=Times New Roman;movable=0;resizable=0;rotatable=0;deletable=0;editable=0;connectable=0;" edge="1" parent="154" source="147" target="148">
                    <mxGeometry relative="1" as="geometry"/>
                </mxCell>
                <mxCell id="151" value="Trở lại" style="ellipse;whiteSpace=wrap;html=1;fontFamily=Times New Roman;movable=0;resizable=0;rotatable=0;deletable=0;editable=0;connectable=0;" vertex="1" parent="154">
                    <mxGeometry x="99" y="490" width="66" height="38" as="geometry"/>
                </mxCell>
                <mxCell id="152" style="edgeStyle=none;html=1;entryX=0.5;entryY=0;entryDx=0;entryDy=0;fontFamily=Times New Roman;movable=0;resizable=0;rotatable=0;deletable=0;editable=0;connectable=0;" edge="1" parent="154" source="148" target="151">
                    <mxGeometry relative="1" as="geometry"/>
                </mxCell>
                <mxCell id="153" value="" style="endArrow=classic;html=1;fontFamily=Times New Roman;exitX=1;exitY=0.5;exitDx=0;exitDy=0;movable=0;resizable=0;rotatable=0;deletable=0;editable=0;connectable=0;" edge="1" parent="154" source="143">
                    <mxGeometry width="50" height="50" relative="1" as="geometry">
                        <mxPoint x="192" y="194" as="sourcePoint"/>
                        <mxPoint x="132" y="468" as="targetPoint"/>
                        <Array as="points">
                            <mxPoint x="216" y="156"/>
                            <mxPoint x="216" y="468"/>
                        </Array>
                    </mxGeometry>
                </mxCell>
                <mxCell id="190" value="Đ" style="text;html=1;align=center;verticalAlign=middle;resizable=0;points=[];autosize=1;strokeColor=none;fillColor=none;fontFamily=Times New Roman;movable=0;rotatable=0;deletable=0;editable=0;connectable=0;" vertex="1" parent="154">
                    <mxGeometry x="132" y="204" width="36" height="24" as="geometry"/>
                </mxCell>
                <mxCell id="191" value="S" style="text;html=1;align=center;verticalAlign=middle;resizable=0;points=[];autosize=1;strokeColor=none;fillColor=none;fontFamily=Times New Roman;movable=0;rotatable=0;deletable=0;editable=0;connectable=0;" vertex="1" parent="154">
                    <mxGeometry x="180" y="132" width="36" height="24" as="geometry"/>
                </mxCell>
                <mxCell id="156" value="Chương trình con đọc cảm biến" style="swimlane;whiteSpace=wrap;html=1;fontFamily=Times New Roman;startSize=23;movable=0;resizable=0;rotatable=0;deletable=0;editable=0;connectable=0;" vertex="1" parent="194">
                    <mxGeometry x="704" y="24" width="252" height="612" as="geometry"/>
                </mxCell>
                <mxCell id="155" value="&lt;font face=&quot;Times New Roman&quot;&gt;Bắt đầu&lt;/font&gt;" style="ellipse;whiteSpace=wrap;html=1;movable=0;resizable=0;rotatable=0;deletable=0;editable=0;connectable=0;" vertex="1" parent="156">
                    <mxGeometry x="90" y="48" width="72" height="36" as="geometry"/>
                </mxCell>
                <mxCell id="158" value="Đọc giá trị từ MPU, tính toán giá trị" style="rounded=0;whiteSpace=wrap;html=1;fontFamily=Times New Roman;movable=0;resizable=0;rotatable=0;deletable=0;editable=0;connectable=0;" vertex="1" parent="156">
                    <mxGeometry x="66" y="108" width="120" height="60" as="geometry"/>
                </mxCell>
                <mxCell id="166" style="edgeStyle=none;html=1;fontFamily=Times New Roman;movable=0;resizable=0;rotatable=0;deletable=0;editable=0;connectable=0;" edge="1" parent="156" source="155" target="158">
                    <mxGeometry relative="1" as="geometry"/>
                </mxCell>
                <mxCell id="159" value="Bộ lọc thông thấp" style="rounded=0;whiteSpace=wrap;html=1;fontFamily=Times New Roman;movable=0;resizable=0;rotatable=0;deletable=0;editable=0;connectable=0;" vertex="1" parent="156">
                    <mxGeometry x="66" y="192" width="120" height="60" as="geometry"/>
                </mxCell>
                <mxCell id="160" value="" style="edgeStyle=none;html=1;fontFamily=Times New Roman;movable=0;resizable=0;rotatable=0;deletable=0;editable=0;connectable=0;" edge="1" parent="156" source="158" target="159">
                    <mxGeometry relative="1" as="geometry"/>
                </mxCell>
                <mxCell id="161" value="Bộ lọc định hướng Madgwick" style="rounded=0;whiteSpace=wrap;html=1;fontFamily=Times New Roman;movable=0;resizable=0;rotatable=0;deletable=0;editable=0;connectable=0;" vertex="1" parent="156">
                    <mxGeometry x="66" y="276" width="120" height="60" as="geometry"/>
                </mxCell>
                <mxCell id="162" style="edgeStyle=none;html=1;fontFamily=Times New Roman;movable=0;resizable=0;rotatable=0;deletable=0;editable=0;connectable=0;" edge="1" parent="156" source="159" target="161">
                    <mxGeometry relative="1" as="geometry"/>
                </mxCell>
                <mxCell id="163" value="Tính toán góc nghiêng" style="rounded=0;whiteSpace=wrap;html=1;fontFamily=Times New Roman;movable=0;resizable=0;rotatable=0;deletable=0;editable=0;connectable=0;" vertex="1" parent="156">
                    <mxGeometry x="66" y="360" width="120" height="60" as="geometry"/>
                </mxCell>
                <mxCell id="164" value="" style="edgeStyle=none;html=1;fontFamily=Times New Roman;movable=0;resizable=0;rotatable=0;deletable=0;editable=0;connectable=0;" edge="1" parent="156" source="161" target="163">
                    <mxGeometry relative="1" as="geometry"/>
                </mxCell>
                <mxCell id="165" value="&lt;font face=&quot;Times New Roman&quot;&gt;Thoát&lt;/font&gt;" style="ellipse;whiteSpace=wrap;html=1;movable=0;resizable=0;rotatable=0;deletable=0;editable=0;connectable=0;" vertex="1" parent="156">
                    <mxGeometry x="90" y="444" width="72" height="36" as="geometry"/>
                </mxCell>
                <mxCell id="167" style="edgeStyle=none;html=1;entryX=0.5;entryY=0;entryDx=0;entryDy=0;fontFamily=Times New Roman;movable=0;resizable=0;rotatable=0;deletable=0;editable=0;connectable=0;" edge="1" parent="156" source="163" target="165">
                    <mxGeometry relative="1" as="geometry"/>
                </mxCell>
                <mxCell id="169" value="Chương trình con bộ điều khiển" style="swimlane;whiteSpace=wrap;html=1;fontFamily=Times New Roman;movable=0;resizable=0;rotatable=0;deletable=0;editable=0;connectable=0;" vertex="1" parent="194">
                    <mxGeometry x="980" y="24" width="240" height="612" as="geometry"/>
                </mxCell>
                <mxCell id="168" value="&lt;font face=&quot;Times New Roman&quot;&gt;Bắt đầu&lt;/font&gt;" style="ellipse;whiteSpace=wrap;html=1;movable=0;resizable=0;rotatable=0;deletable=0;editable=0;connectable=0;" vertex="1" parent="169">
                    <mxGeometry x="84" y="48" width="72" height="36" as="geometry"/>
                </mxCell>
                <mxCell id="170" value="Tính toán sai số" style="rounded=0;whiteSpace=wrap;html=1;fontFamily=Times New Roman;movable=0;resizable=0;rotatable=0;deletable=0;editable=0;connectable=0;" vertex="1" parent="169">
                    <mxGeometry x="60" y="108" width="120" height="60" as="geometry"/>
                </mxCell>
                <mxCell id="174" style="edgeStyle=none;html=1;fontFamily=Times New Roman;movable=0;resizable=0;rotatable=0;deletable=0;editable=0;connectable=0;" edge="1" parent="169" source="168" target="170">
                    <mxGeometry relative="1" as="geometry"/>
                </mxCell>
                <mxCell id="171" value="Tính toán giá trị bộ điều khiển" style="rounded=0;whiteSpace=wrap;html=1;fontFamily=Times New Roman;movable=0;resizable=0;rotatable=0;deletable=0;editable=0;connectable=0;" vertex="1" parent="169">
                    <mxGeometry x="60" y="192" width="120" height="60" as="geometry"/>
                </mxCell>
                <mxCell id="175" style="edgeStyle=none;html=1;entryX=0.5;entryY=0;entryDx=0;entryDy=0;fontFamily=Times New Roman;movable=0;resizable=0;rotatable=0;deletable=0;editable=0;connectable=0;" edge="1" parent="169" source="170" target="171">
                    <mxGeometry relative="1" as="geometry"/>
                </mxCell>
                <mxCell id="172" value="Chuyển giá trị bộ điều khiển sang tín hiệu điều khiển" style="rounded=0;whiteSpace=wrap;html=1;fontFamily=Times New Roman;movable=0;resizable=0;rotatable=0;deletable=0;editable=0;connectable=0;" vertex="1" parent="169">
                    <mxGeometry x="60" y="276" width="120" height="60" as="geometry"/>
                </mxCell>
                <mxCell id="176" style="edgeStyle=none;html=1;entryX=0.5;entryY=0;entryDx=0;entryDy=0;fontFamily=Times New Roman;movable=0;resizable=0;rotatable=0;deletable=0;editable=0;connectable=0;" edge="1" parent="169" source="171" target="172">
                    <mxGeometry relative="1" as="geometry"/>
                </mxCell>
                <mxCell id="173" value="&lt;font face=&quot;Times New Roman&quot;&gt;Thoát&lt;/font&gt;" style="ellipse;whiteSpace=wrap;html=1;movable=0;resizable=0;rotatable=0;deletable=0;editable=0;connectable=0;" vertex="1" parent="169">
                    <mxGeometry x="84" y="360" width="72" height="36" as="geometry"/>
                </mxCell>
                <mxCell id="177" style="edgeStyle=none;html=1;entryX=0.5;entryY=0;entryDx=0;entryDy=0;fontFamily=Times New Roman;movable=0;resizable=0;rotatable=0;deletable=0;editable=0;connectable=0;" edge="1" parent="169" source="172" target="173">
                    <mxGeometry relative="1" as="geometry"/>
                </mxCell>
                <mxCell id="178" value="Chương trình con &lt;br&gt;xuất tín hiệu điều khiển" style="swimlane;whiteSpace=wrap;html=1;fontFamily=Times New Roman;startSize=24;movable=0;resizable=0;rotatable=0;deletable=0;editable=0;connectable=0;" vertex="1" parent="194">
                    <mxGeometry x="1244" y="24" width="312" height="612" as="geometry"/>
                </mxCell>
                <mxCell id="179" value="&lt;font face=&quot;Times New Roman&quot;&gt;Bắt đầu&lt;/font&gt;" style="ellipse;whiteSpace=wrap;html=1;movable=0;resizable=0;rotatable=0;deletable=0;editable=0;connectable=0;" vertex="1" parent="178">
                    <mxGeometry x="120" y="48" width="72" height="36" as="geometry"/>
                </mxCell>
                <mxCell id="181" value="Kiểm tra cho &lt;br&gt;phép hoạt động" style="rhombus;whiteSpace=wrap;html=1;fontFamily=Times New Roman;movable=0;resizable=0;rotatable=0;deletable=0;editable=0;connectable=0;" vertex="1" parent="178">
                    <mxGeometry x="96" y="108" width="120" height="84" as="geometry"/>
                </mxCell>
                <mxCell id="182" style="edgeStyle=none;html=1;entryX=0.5;entryY=0;entryDx=0;entryDy=0;fontFamily=Times New Roman;movable=0;resizable=0;rotatable=0;deletable=0;editable=0;connectable=0;" edge="1" parent="178" source="179" target="181">
                    <mxGeometry relative="1" as="geometry"/>
                </mxCell>
                <mxCell id="183" value="Xuất tín hiệu điều khiển&lt;br&gt;Nháy đèn báo" style="rounded=0;whiteSpace=wrap;html=1;fontFamily=Times New Roman;movable=0;resizable=0;rotatable=0;deletable=0;editable=0;connectable=0;" vertex="1" parent="178">
                    <mxGeometry x="12" y="204" width="120" height="66" as="geometry"/>
                </mxCell>
                <mxCell id="184" style="edgeStyle=none;html=1;fontFamily=Times New Roman;movable=0;resizable=0;rotatable=0;deletable=0;editable=0;connectable=0;" edge="1" parent="178" source="181" target="183">
                    <mxGeometry relative="1" as="geometry">
                        <Array as="points">
                            <mxPoint x="72" y="150"/>
                        </Array>
                    </mxGeometry>
                </mxCell>
                <mxCell id="185" value="&lt;font face=&quot;Times New Roman&quot;&gt;Thoát&lt;/font&gt;" style="ellipse;whiteSpace=wrap;html=1;movable=0;resizable=0;rotatable=0;deletable=0;editable=0;connectable=0;" vertex="1" parent="178">
                    <mxGeometry x="120" y="324" width="72" height="36" as="geometry"/>
                </mxCell>
                <mxCell id="186" style="edgeStyle=none;html=1;entryX=0.5;entryY=0;entryDx=0;entryDy=0;fontFamily=Times New Roman;exitX=0.5;exitY=1;exitDx=0;exitDy=0;movable=0;resizable=0;rotatable=0;deletable=0;editable=0;connectable=0;" edge="1" parent="178" source="183" target="185">
                    <mxGeometry relative="1" as="geometry">
                        <mxPoint x="72" y="288" as="sourcePoint"/>
                        <Array as="points">
                            <mxPoint x="72" y="288"/>
                            <mxPoint x="156" y="288"/>
                        </Array>
                    </mxGeometry>
                </mxCell>
                <mxCell id="189" style="edgeStyle=none;html=1;fontFamily=Times New Roman;exitX=0.5;exitY=1;exitDx=0;exitDy=0;movable=0;resizable=0;rotatable=0;deletable=0;editable=0;connectable=0;" edge="1" parent="178" source="187">
                    <mxGeometry relative="1" as="geometry">
                        <mxPoint x="156" y="324" as="targetPoint"/>
                        <mxPoint x="252" y="270" as="sourcePoint"/>
                        <Array as="points">
                            <mxPoint x="240" y="288"/>
                            <mxPoint x="156" y="288"/>
                        </Array>
                    </mxGeometry>
                </mxCell>
                <mxCell id="187" value="Tắt tín hiệu điều khiển" style="rounded=0;whiteSpace=wrap;html=1;fontFamily=Times New Roman;movable=0;resizable=0;rotatable=0;deletable=0;editable=0;connectable=0;" vertex="1" parent="178">
                    <mxGeometry x="180" y="204" width="120" height="66" as="geometry"/>
                </mxCell>
                <mxCell id="188" style="edgeStyle=none;html=1;entryX=0.5;entryY=0;entryDx=0;entryDy=0;fontFamily=Times New Roman;movable=0;resizable=0;rotatable=0;deletable=0;editable=0;connectable=0;" edge="1" parent="178" source="181" target="187">
                    <mxGeometry relative="1" as="geometry">
                        <mxPoint x="252" y="204" as="targetPoint"/>
                        <Array as="points">
                            <mxPoint x="240" y="150"/>
                        </Array>
                    </mxGeometry>
                </mxCell>
                <mxCell id="192" value="S" style="text;html=1;align=center;verticalAlign=middle;resizable=0;points=[];autosize=1;strokeColor=none;fillColor=none;fontFamily=Times New Roman;movable=0;rotatable=0;deletable=0;editable=0;connectable=0;" vertex="1" parent="178">
                    <mxGeometry x="204" y="120" width="36" height="24" as="geometry"/>
                </mxCell>
                <mxCell id="193" value="Đ" style="text;html=1;align=center;verticalAlign=middle;resizable=0;points=[];autosize=1;strokeColor=none;fillColor=none;fontFamily=Times New Roman;movable=0;rotatable=0;deletable=0;editable=0;connectable=0;" vertex="1" parent="178">
                    <mxGeometry x="60" y="120" width="36" height="24" as="geometry"/>
                </mxCell>
                <mxCell id="196" value="Chương trình điều khiển kết nối máy tính" style="swimlane;horizontal=0;whiteSpace=wrap;html=1;fontFamily=Times New Roman;movable=0;resizable=0;rotatable=0;deletable=0;editable=0;connectable=0;" vertex="1" parent="1">
                    <mxGeometry x="-828" y="720" width="1604" height="660" as="geometry">
                        <mxRectangle x="-828" y="720" width="36" height="144" as="alternateBounds"/>
                    </mxGeometry>
                </mxCell>
                <mxCell id="197" value="Chương trình chính&lt;br&gt;" style="swimlane;whiteSpace=wrap;html=1;fontFamily=Times New Roman;startSize=23;movable=0;resizable=0;rotatable=0;deletable=0;editable=0;connectable=0;" vertex="1" parent="196">
                    <mxGeometry x="56" y="24" width="336" height="612" as="geometry">
                        <mxRectangle x="-204" y="258" width="144" height="24" as="alternateBounds"/>
                    </mxGeometry>
                </mxCell>
                <mxCell id="198" style="edgeStyle=none;html=1;fontFamily=Times New Roman;movable=0;resizable=0;rotatable=0;deletable=0;editable=0;connectable=0;" edge="1" parent="197" source="200">
                    <mxGeometry relative="1" as="geometry">
                        <mxPoint x="172" y="69" as="targetPoint"/>
                    </mxGeometry>
                </mxCell>
                <mxCell id="199" style="edgeStyle=none;html=1;entryX=0.5;entryY=0;entryDx=0;entryDy=0;fontFamily=Times New Roman;movable=0;resizable=0;rotatable=0;deletable=0;editable=0;connectable=0;" edge="1" parent="197" source="200" target="201">
                    <mxGeometry relative="1" as="geometry"/>
                </mxCell>
                <mxCell id="200" value="&lt;font face=&quot;Times New Roman&quot;&gt;Bắt đầu&lt;/font&gt;" style="ellipse;whiteSpace=wrap;html=1;movable=0;resizable=0;rotatable=0;deletable=0;editable=0;connectable=0;" vertex="1" parent="197">
                    <mxGeometry x="132" y="48" width="72" height="36" as="geometry"/>
                </mxCell>
                <mxCell id="201" value="Cài đặt hệ thống, cấu hình ngoại vi, ngắt" style="rounded=0;whiteSpace=wrap;html=1;fontFamily=Times New Roman;movable=0;resizable=0;rotatable=0;deletable=0;editable=0;connectable=0;" vertex="1" parent="197">
                    <mxGeometry x="108" y="108" width="120" height="60" as="geometry"/>
                </mxCell>
                <mxCell id="202" value="Điều kiện vòng lặp" style="rhombus;whiteSpace=wrap;html=1;fontFamily=Times New Roman;movable=0;resizable=0;rotatable=0;deletable=0;editable=0;connectable=0;" vertex="1" parent="197">
                    <mxGeometry x="114" y="192" width="108" height="96" as="geometry"/>
                </mxCell>
                <mxCell id="203" style="edgeStyle=none;html=1;fontFamily=Times New Roman;movable=0;resizable=0;rotatable=0;deletable=0;editable=0;connectable=0;" edge="1" parent="197" source="201" target="202">
                    <mxGeometry relative="1" as="geometry"/>
                </mxCell>
                <mxCell id="204" value="Điều kiện nhận được&lt;br&gt;tín hiệu giao tiếp RF" style="rhombus;whiteSpace=wrap;html=1;fontFamily=Times New Roman;movable=0;resizable=0;rotatable=0;deletable=0;editable=0;connectable=0;" vertex="1" parent="197">
                    <mxGeometry x="102" y="312" width="132" height="132" as="geometry"/>
                </mxCell>
                <mxCell id="205" style="edgeStyle=none;html=1;entryX=0.5;entryY=0;entryDx=0;entryDy=0;fontFamily=Times New Roman;movable=0;resizable=0;rotatable=0;deletable=0;editable=0;connectable=0;" edge="1" parent="197" source="202" target="204">
                    <mxGeometry relative="1" as="geometry"/>
                </mxCell>
                <mxCell id="206" value="Nhận giao tiếp RF&lt;br style=&quot;border-color: var(--border-color);&quot;&gt;Gửi giao tiếp RF&lt;br&gt;Nháy đèn báo" style="whiteSpace=wrap;html=1;fontFamily=Times New Roman;movable=0;resizable=0;rotatable=0;deletable=0;editable=0;connectable=0;" vertex="1" parent="197">
                    <mxGeometry x="108" y="468" width="120" height="60" as="geometry"/>
                </mxCell>
                <mxCell id="207" value="" style="edgeStyle=none;html=1;fontFamily=Times New Roman;movable=0;resizable=0;rotatable=0;deletable=0;editable=0;connectable=0;" edge="1" parent="197" source="204" target="206">
                    <mxGeometry relative="1" as="geometry"/>
                </mxCell>
                <mxCell id="208" value="" style="endArrow=classic;html=1;fontFamily=Times New Roman;exitX=0.5;exitY=1;exitDx=0;exitDy=0;movable=0;resizable=0;rotatable=0;deletable=0;editable=0;connectable=0;" edge="1" parent="197" source="206">
                    <mxGeometry width="50" height="50" relative="1" as="geometry">
                        <mxPoint x="174" y="531" as="sourcePoint"/>
                        <mxPoint x="168" y="180" as="targetPoint"/>
                        <Array as="points">
                            <mxPoint x="168" y="552"/>
                            <mxPoint x="72" y="552"/>
                            <mxPoint x="72" y="180"/>
                        </Array>
                    </mxGeometry>
                </mxCell>
                <mxCell id="209" value="Kết thúc" style="ellipse;whiteSpace=wrap;html=1;fontFamily=Times New Roman;movable=0;resizable=0;rotatable=0;deletable=0;editable=0;connectable=0;" vertex="1" parent="197">
                    <mxGeometry x="252" y="222" width="60" height="36" as="geometry"/>
                </mxCell>
                <mxCell id="210" value="" style="edgeStyle=none;html=1;fontFamily=Times New Roman;movable=0;resizable=0;rotatable=0;deletable=0;editable=0;connectable=0;" edge="1" parent="197" source="202" target="209">
                    <mxGeometry relative="1" as="geometry"/>
                </mxCell>
                <mxCell id="211" value="Đ" style="text;html=1;align=center;verticalAlign=middle;resizable=0;points=[];autosize=1;strokeColor=none;fillColor=none;fontFamily=Times New Roman;movable=0;rotatable=0;deletable=0;editable=0;connectable=0;" vertex="1" parent="197">
                    <mxGeometry x="168" y="286" width="36" height="24" as="geometry"/>
                </mxCell>
                <mxCell id="212" value="S" style="text;html=1;align=center;verticalAlign=middle;resizable=0;points=[];autosize=1;strokeColor=none;fillColor=none;fontFamily=Times New Roman;movable=0;rotatable=0;deletable=0;editable=0;connectable=0;" vertex="1" parent="197">
                    <mxGeometry x="216" y="222" width="36" height="24" as="geometry"/>
                </mxCell>
                <mxCell id="213" value="Đ" style="text;html=1;align=center;verticalAlign=middle;resizable=0;points=[];autosize=1;strokeColor=none;fillColor=none;fontFamily=Times New Roman;movable=0;rotatable=0;deletable=0;editable=0;connectable=0;" vertex="1" parent="197">
                    <mxGeometry x="168" y="444" width="36" height="24" as="geometry"/>
                </mxCell>
                <mxCell id="214" value="" style="endArrow=classic;html=1;fontFamily=Times New Roman;exitX=1;exitY=0.5;exitDx=0;exitDy=0;movable=0;resizable=0;rotatable=0;deletable=0;editable=0;connectable=0;" edge="1" parent="197" source="204">
                    <mxGeometry width="50" height="50" relative="1" as="geometry">
                        <mxPoint x="268" y="449" as="sourcePoint"/>
                        <mxPoint x="156" y="552" as="targetPoint"/>
                        <Array as="points">
                            <mxPoint x="264" y="378"/>
                            <mxPoint x="264" y="552"/>
                        </Array>
                    </mxGeometry>
                </mxCell>
                <mxCell id="215" value="S" style="text;html=1;align=center;verticalAlign=middle;resizable=0;points=[];autosize=1;strokeColor=none;fillColor=none;fontFamily=Times New Roman;movable=0;rotatable=0;deletable=0;editable=0;connectable=0;" vertex="1" parent="197">
                    <mxGeometry x="228" y="360" width="36" height="24" as="geometry"/>
                </mxCell>
                <mxCell id="216" value="Chương trình ngắt UART_6" style="swimlane;whiteSpace=wrap;html=1;fontFamily=Times New Roman;movable=0;resizable=0;rotatable=0;deletable=0;editable=0;connectable=0;" vertex="1" parent="196">
                    <mxGeometry x="416" y="24" width="264" height="612" as="geometry"/>
                </mxCell>
                <mxCell id="217" value="&lt;font face=&quot;Times New Roman&quot;&gt;Bắt đầu&lt;/font&gt;" style="ellipse;whiteSpace=wrap;html=1;movable=0;resizable=0;rotatable=0;deletable=0;editable=0;connectable=0;" vertex="1" parent="216">
                    <mxGeometry x="96" y="48" width="72" height="36" as="geometry"/>
                </mxCell>
                <mxCell id="218" value="Kiểm tra kí tự &lt;br&gt;bắt đầu &lt;br&gt;khung truyền" style="rhombus;whiteSpace=wrap;html=1;fontFamily=Times New Roman;movable=0;resizable=0;rotatable=0;deletable=0;editable=0;connectable=0;" vertex="1" parent="216">
                    <mxGeometry x="78" y="108" width="108" height="96" as="geometry"/>
                </mxCell>
                <mxCell id="219" style="edgeStyle=none;html=1;entryX=0.5;entryY=0;entryDx=0;entryDy=0;fontFamily=Times New Roman;movable=0;resizable=0;rotatable=0;deletable=0;editable=0;connectable=0;" edge="1" parent="216" source="217" target="218">
                    <mxGeometry relative="1" as="geometry"/>
                </mxCell>
                <mxCell id="221" style="edgeStyle=none;html=1;fontFamily=Times New Roman;entryX=0.5;entryY=0;entryDx=0;entryDy=0;movable=0;resizable=0;rotatable=0;deletable=0;editable=0;connectable=0;" edge="1" parent="216" source="218" target="267">
                    <mxGeometry relative="1" as="geometry">
                        <mxPoint x="148" y="216" as="targetPoint"/>
                    </mxGeometry>
                </mxCell>
                <mxCell id="223" style="edgeStyle=none;html=1;fontFamily=Times New Roman;entryX=0.5;entryY=0;entryDx=0;entryDy=0;movable=0;resizable=0;rotatable=0;deletable=0;editable=0;connectable=0;" edge="1" parent="216" target="281">
                    <mxGeometry relative="1" as="geometry">
                        <mxPoint x="132" y="288" as="sourcePoint"/>
                        <mxPoint x="148" y="300" as="targetPoint"/>
                    </mxGeometry>
                </mxCell>
                <mxCell id="225" style="edgeStyle=none;html=1;entryX=0.5;entryY=0;entryDx=0;entryDy=0;fontFamily=Times New Roman;movable=0;resizable=0;rotatable=0;deletable=0;editable=0;connectable=0;" edge="1" parent="216" target="226">
                    <mxGeometry relative="1" as="geometry">
                        <mxPoint x="132" y="372" as="sourcePoint"/>
                        <mxPoint x="132" y="395.9999999999998" as="targetPoint"/>
                    </mxGeometry>
                </mxCell>
                <mxCell id="226" value="Trở lại" style="ellipse;whiteSpace=wrap;html=1;fontFamily=Times New Roman;movable=0;resizable=0;rotatable=0;deletable=0;editable=0;connectable=0;" vertex="1" parent="216">
                    <mxGeometry x="99" y="408" width="66" height="36" as="geometry"/>
                </mxCell>
                <mxCell id="228" value="" style="endArrow=classic;html=1;fontFamily=Times New Roman;exitX=1;exitY=0.5;exitDx=0;exitDy=0;movable=0;resizable=0;rotatable=0;deletable=0;editable=0;connectable=0;" edge="1" parent="216" source="218">
                    <mxGeometry width="50" height="50" relative="1" as="geometry">
                        <mxPoint x="192" y="194" as="sourcePoint"/>
                        <mxPoint x="132" y="396" as="targetPoint"/>
                        <Array as="points">
                            <mxPoint x="220" y="156"/>
                            <mxPoint x="220" y="396"/>
                        </Array>
                    </mxGeometry>
                </mxCell>
                <mxCell id="229" value="Đ" style="text;html=1;align=center;verticalAlign=middle;resizable=0;points=[];autosize=1;strokeColor=none;fillColor=none;fontFamily=Times New Roman;movable=0;rotatable=0;deletable=0;editable=0;connectable=0;" vertex="1" parent="216">
                    <mxGeometry x="132" y="204" width="36" height="24" as="geometry"/>
                </mxCell>
                <mxCell id="230" value="S" style="text;html=1;align=center;verticalAlign=middle;resizable=0;points=[];autosize=1;strokeColor=none;fillColor=none;fontFamily=Times New Roman;movable=0;rotatable=0;deletable=0;editable=0;connectable=0;" vertex="1" parent="216">
                    <mxGeometry x="180" y="132" width="36" height="24" as="geometry"/>
                </mxCell>
                <mxCell id="267" value="Nhận giá trị điều khiển" style="rounded=0;whiteSpace=wrap;html=1;fontFamily=Times New Roman;movable=0;resizable=0;rotatable=0;deletable=0;editable=0;connectable=0;" vertex="1" parent="216">
                    <mxGeometry x="72" y="228" width="120" height="60" as="geometry"/>
                </mxCell>
                <mxCell id="281" value="Gửi giá trị điều khiển&lt;br&gt;Nháy đèn báo" style="rounded=0;whiteSpace=wrap;html=1;fontFamily=Times New Roman;movable=0;resizable=0;rotatable=0;deletable=0;editable=0;connectable=0;" vertex="1" parent="216">
                    <mxGeometry x="72" y="312" width="120" height="60" as="geometry"/>
                </mxCell>
            </root>
        </mxGraphModel>
    </diagram>
</mxfile>